mtllib camtest.mtl
# vertices
v 0 0 -320
v 0 0 -0
v 0 64 -0
v 0 64 -320
v 320 64 -0
v 320 0 -0
v 320 0 -320
v 320 64 -320
v -64 0 -320
v -64 0 -0
v -64 512 -0
v -64 512 -320
v 0 512 -0
v 0 0 -0
v 0 0 -320
v 0 512 -320
v 320 0 -0
v 320 0 64
v 320 512 64
v 320 512 -0
v 640 512 64
v 640 0 64
v 640 0 -0
v 640 512 -0
v 320 0 -320
v 320 0 -0
v 320 64 -0
v 320 64 -320
v 640 64 -0
v 640 0 -0
v 640 0 -320
v 640 64 -320
v 640 256 -192
v 640 256 -32
v 640 512 -32
v 640 512 -192
v 704 512 -32
v 704 256 -32
v 704 256 -192
v 704 512 -192
v 320 0 -704
v 320 0 -640
v 320 512 -640
v 320 512 -704
v 640 512 -640
v 640 0 -640
v 640 0 -704
v 640 512 -704
v 320 0 -640
v 320 0 -320
v 320 64 -320
v 320 64 -640
v 640 64 -320
v 640 0 -320
v 640 0 -640
v 640 64 -640
v 640 0 -640
v 640 0 -320
v 640 512 -320
v 640 512 -640
v 704 512 -320
v 704 0 -320
v 704 0 -640
v 704 512 -640
v 0 0 -640
v 0 0 -320
v 0 64 -320
v 0 64 -640
v 320 64 -320
v 320 0 -320
v 320 0 -640
v 320 64 -640
v -64 0 -640
v -64 0 -320
v -64 512 -320
v -64 512 -640
v 0 512 -320
v 0 0 -320
v 0 0 -640
v 0 512 -640
v 320 448 -640
v 320 448 -320
v 320 512 -320
v 320 512 -640
v 640 512 -320
v 640 448 -320
v 640 448 -640
v 640 512 -640
v 0 448 -640
v 0 448 -320
v 0 512 -320
v 0 512 -640
v 320 512 -320
v 320 448 -320
v 320 448 -640
v 320 512 -640
v 0 448 -320
v 0 448 -0
v 0 512 -0
v 0 512 -320
v 320 512 -0
v 320 448 -0
v 320 448 -320
v 320 512 -320
v 320 448 -320
v 320 448 -0
v 320 512 -0
v 320 512 -320
v 640 512 -0
v 640 448 -0
v 640 448 -320
v 640 512 -320
v 480 64 -480
v 480 64 -224
v 480 256 -480
v 640 256 -480
v 640 64 -224
v 640 64 -480
v 480 64 -640
v 480 64 -480
v 480 256 -480
v 480 256 -640
v 640 256 -480
v 640 64 -480
v 640 64 -640
v 640 256 -640
v 320 224 -640
v 320 224 -480
v 320 256 -480
v 320 256 -640
v 480 256 -480
v 480 224 -480
v 480 224 -640
v 480 256 -640
v 160 224 -640
v 160 224 -0
v 160 256 -0
v 160 256 -640
v 320 256 -0
v 320 224 -0
v 320 224 -640
v 320 256 -640
v 0 0 -704
v 0 0 -640
v 0 512 -640
v 0 512 -704
v 160 512 -640
v 160 0 -640
v 160 0 -704
v 160 512 -704
v 160 0 -704
v 160 0 -640
v 160 256 -640
v 160 256 -704
v 320 256 -640
v 320 0 -640
v 320 0 -704
v 320 256 -704
v 160 448 -704
v 160 448 -640
v 160 512 -640
v 160 512 -704
v 320 512 -640
v 320 448 -640
v 320 448 -704
v 320 512 -704
v 160 416 -704
v 160 416 -640
v 160 448 -640
v 160 448 -704
v 240 448 -640
v 240 416 -640
v 240 416 -704
v 240 448 -704
v 240 416 -704
v 240 416 -640
v 240 448 -640
v 240 448 -704
v 320 448 -640
v 320 416 -640
v 320 416 -704
v 320 448 -704
v 320 368 -640
v 240 416 -640
v 240 416 -704
v 320 368 -704
v 320 416 -640
v 320 416 -704
v 160 368 -640
v 160 416 -640
v 160 416 -704
v 160 368 -704
v 240 416 -640
v 240 416 -704
v 0 0 -0
v 0 0 64
v 0 512 64
v 0 512 -0
v 160 512 64
v 160 0 64
v 160 0 -0
v 160 512 -0
v 160 0 -0
v 160 0 64
v 160 256 64
v 160 256 -0
v 320 256 64
v 320 0 64
v 320 0 -0
v 320 256 -0
v 160 448 -0
v 160 448 64
v 160 512 64
v 160 512 -0
v 320 512 64
v 320 448 64
v 320 448 -0
v 320 512 -0
v 320 368 64
v 240 416 64
v 240 416 -0
v 320 368 -0
v 320 416 64
v 320 416 -0
v 160 416 -0
v 160 416 64
v 160 448 64
v 160 448 -0
v 240 448 64
v 240 416 64
v 240 416 -0
v 240 448 -0
v 160 368 64
v 160 416 64
v 160 416 -0
v 160 368 -0
v 240 416 64
v 240 416 -0
v 240 416 -0
v 240 416 64
v 240 448 64
v 240 448 -0
v 320 448 64
v 320 416 64
v 320 416 -0
v 320 448 -0
v 640 0 -320
v 640 0 -192
v 640 512 -192
v 640 512 -320
v 704 512 -192
v 704 0 -192
v 704 0 -320
v 704 512 -320
v 640 0 -32
v 640 0 -0
v 640 512 -0
v 640 512 -32
v 704 512 -0
v 704 0 -0
v 704 0 -32
v 704 512 -32
v 640 0 -192
v 640 0 -32
v 640 64 -32
v 640 64 -192
v 704 64 -32
v 704 0 -32
v 704 0 -192
v 704 64 -192
v 640 176 -192
v 640 224 -112
v 640 224 -192
v 704 224 -112
v 704 176 -192
v 704 224 -192
v 640 224 -192
v 640 224 -112
v 640 256 -112
v 640 256 -192
v 704 256 -112
v 704 224 -112
v 704 224 -192
v 704 256 -192
v 640 224 -112
v 640 224 -32
v 640 256 -32
v 640 256 -112
v 704 256 -32
v 704 224 -32
v 704 224 -112
v 704 256 -112
v 640 176 -32
v 640 224 -32
v 640 224 -112
v 704 224 -32
v 704 176 -32
v 704 224 -112
v 160 0 192
v 160 0 352
v 160 352 352
v 160 256 192
v 320 352 352
v 320 0 352
v 320 0 192
v 320 256 192
v 160 0 352
v 160 0 480
v 160 352 480
v 160 352 352
v 320 352 480
v 320 0 480
v 320 0 352
v 320 352 352
v 320 0 352
v 320 0 480
v 320 352 480
v 320 352 352
v 640 352 480
v 640 0 480
v 640 0 352
v 640 352 352
v 0 0 64
v 0 0 480
v 0 128 480
v 0 128 64
v 160 128 480
v 160 0 480
v 160 0 64
v 160 128 64
v -64 0 64
v -64 0 480
v -64 512 480
v -64 512 64
v 0 512 480
v 0 0 480
v 0 0 64
v 0 512 64
v 0 0 480
v 0 0 544
v 0 512 544
v 0 512 480
v 640 512 544
v 640 0 544
v 640 0 480
v 640 512 480
v 640 0 64
v 640 0 480
v 640 512 480
v 640 512 64
v 704 512 480
v 704 0 480
v 704 0 64
v 704 512 64
v 160 0 64
v 160 0 192
v 160 256 192
v 160 256 64
v 320 256 192
v 320 0 192
v 320 0 64
v 320 256 64
v 320 0 64
v 320 0 352
v 320 352 352
v 320 352 64
v 640 352 352
v 640 0 352
v 640 0 64
v 640 352 64

# texture coordinates
vt -5 -0
vt 0 -0
vt 0 1
vt -5 1
vt 5 1
vt 5 -0
vt 0 5
vt -5 5
vt 5 5
vt 0 8
vt -5 8
vt -1 8
vt -1 -0
vt 1 -0
vt 1 5
vt -1 5
vt 1 8
vt 5 8
vt 10 8
vt 10 -0
vt -10 -1
vt -5 -1
vt -10 -0
vt 5 -1
vt 10 -1
vt 10 1
vt -10 5
vt 10 5
vt -10 1
vt -3 4
vt -0.5 4
vt -0.5 8
vt -3 8
vt 11 8
vt 10 4
vt 11 4
vt -11 0.5
vt -10 0.5
vt -10 3
vt -11 3
vt 11 3
vt 10 3
vt 10 0.5
vt 11 0.5
vt -11 4
vt -10 4
vt -10 8
vt -11 8
vt 11 -0
vt -10 10
vt -5 10
vt -5 11
vt -10 11
vt 10 11
vt 5 11
vt 5 10
vt 10 10
vt -11 -0
vt -11 5
vt -11 10
vt 11 10
vt 11 5
vt 0 10
vt 1 10
vt -1 10
vt 10 7
vt 5 7
vt -5 7
vt -10 7
vt 0 7
vt -7.5 1
vt -3.5 1
vt -7.5 4
vt 10 7.5
vt 7.5 7.5
vt 7.5 3.5
vt 10 3.5
vt -10 3.5
vt -7.5 3.5
vt -7.5 7.5
vt -10 7.5
vt 3.5 1
vt 7.5 1
vt 7.5 4
vt -7.5 10
vt 7.5 10
vt -5 4
vt -5 3.5
vt -5 7.5
vt 5 7.5
vt 0 3.5
vt 0 4
vt -2.5 4
vt -2.5 3.5
vt -2.5 -0
vt -2.5 10
vt 2.5 10
vt 2.5 -0
vt 2.5 8
vt 0 11
vt -2.5 11
vt 2.5 11
vt 5 4
vt 2.5 4
vt -11 7
vt 2.5 7
vt 11 7
vt -10.5 6.5
vt -9.5 6.5
vt -9.5 7
vt -10.5 7
vt 3.75 7
vt 2.5 6.5
vt 3.75 6.5
vt 3.75 -9.5
vt 2.5 -9.5
vt 2.5 -10.5
vt 3.75 -10.5
vt 3.75 11
vt 3.75 10
vt 10.75 7
vt 9.75 7
vt 9.75 6.5
vt 10.75 6.5
vt -11 6.5
vt -10 6.5
vt 5 6.5
vt -3.75 10
vt -3.75 11
vt -5 6.5
vt -3.75 6.5
vt -3.75 7
vt 10 6.5
vt 11 6.5
vt 5 5.75
vt -5 5.75
vt 10 5.75
vt 11 5.75
vt -10 5.75
vt -11 5.75
vt 2.5 5.75
vt -2.5 5.75
vt -2.5 6.5
vt -2.5 -1
vt 0 -1
vt 2.5 -1
vt 1 4
vt -1 4
vt 1 7
vt -1 7
vt -3.75 -1
vt -3.75 -0
vt 3.75 -0
vt 3.75 -1
vt 0 6.5
vt -1 6.5
vt -1 5.75
vt 0 5.75
vt 1 6.5
vt 1 5.75
vt -3 -0
vt -0.5 -0
vt -0.5 1
vt -3 1
vt 11 1
vt -11 1
vt -3 2.75
vt -1.75 3.5
vt -3 3.5
vt -11 1.75
vt -10 1.75
vt 10 1.75
vt 11 1.75
vt 11 2.75
vt 10 2.75
vt 11 3.5
vt -1.75 4
vt -11 3.5
vt -0.5 3.5
vt -0.5 2.75
vt -10 2.75
vt -11 2.75
vt 3 -0
vt 5.5 -0
vt 5.5 5.5
vt 3 4
vt 5 5.5
vt 2.5 5.5
vt -5 -5.5
vt -2.5 -5.5
vt -2.5 -3
vt -5 -3
vt -5.5 5.5
vt -5.5 -0
vt 7.5 -0
vt 7.5 5.5
vt -5 -7.5
vt -2.5 -7.5
vt 5 -5.5
vt 2.5 -5.5
vt 2.5 -7.5
vt 5 -7.5
vt -2.5 5.5
vt -5 5.5
vt -7.5 5.5
vt -7.5 -0
vt 10 5.5
vt -10 -7.5
vt -10 -5.5
vt 10 -5.5
vt 10 -7.5
vt -10 5.5
vt 7.5 2
vt 1 2
vt 2.5 2
vt 0 2
vt 0 -7.5
vt -2.5 2
vt 7.5 8
vt 1 -7.5
vt 1 -1
vt -1 -1
vt -1 -7.5
vt -7.5 8
vt 8.5 -0
vt 8.5 8
vt -10 -8.5
vt 0 -8.5
vt 10 -8.5
vt -9.5 -0
vt 0.5 -0
vt 0.5 8
vt -9.5 8
vt -11 -7.5
vt -11 -1
vt 11 -1
vt 11 -7.5
vt -1 5.5

# face normals
vn -1 0 -0
vn 0 0 1
vn 0 -1 -0
vn 0 1 -0
vn 0 0 -1
vn 1 0 -0
vn 0 0.80000000000000004 0.59999999999999998
vn -0.51449575542752646 -0.8574929257125441 -0
vn 0.51449575542752646 -0.8574929257125441 -0
vn -0 -0.8574929257125441 0.51449575542752646
vn 0 -0.8574929257125441 -0.51449575542752646
vn 0 0.85749292571254421 -0.51449575542752657

# objects
o entity0_brush0
usemtl 64_grey_3
f 1/1/1 2/2/1 3/3/1 4/4/1
usemtl 64_grey_3
f 5/5/2 3/3/2 2/2/2 6/6/2
usemtl 64_grey_3
f 6/1/3 2/2/3 1/7/3 7/8/3
usemtl 64_grey_3
f 8/9/4 4/7/4 3/2/4 5/6/4
usemtl 64_grey_3
f 7/1/5 1/2/5 4/3/5 8/4/5
usemtl 64_grey_3
f 8/5/6 5/3/6 6/2/6 7/6/6

o entity0_brush1
usemtl 64_grey_3
f 9/1/1 10/2/1 11/10/1 12/11/1
usemtl 64_grey_3
f 13/10/2 11/12/2 10/13/2 14/2/2
usemtl 64_grey_3
f 14/2/3 10/14/3 9/15/3 15/7/3
usemtl 64_grey_3
f 16/7/4 12/16/4 11/13/4 13/2/4
usemtl 64_grey_3
f 15/2/5 9/14/5 12/17/5 16/10/5
usemtl 64_honey_3
f 16/18/6 13/10/6 14/2/6 15/6/6

o entity0_brush2
usemtl 64_grey_3
f 17/2/1 18/13/1 19/12/1 20/10/1
usemtl 64_honey_3
f 21/19/2 19/18/2 18/6/2 22/20/2
usemtl 64_grey_3
f 22/21/3 18/22/3 17/1/3 23/23/3
usemtl 64_grey_3
f 24/20/4 20/6/4 19/24/4 21/25/4
usemtl 64_honey_3
f 23/20/5 17/6/5 20/18/5 24/19/5
usemtl 64_grey_3
f 24/10/6 21/17/6 22/14/6 23/2/6

o entity0_brush3
usemtl 64_grey_3
f 25/6/1 26/2/1 27/3/1 28/5/1
usemtl 64_grey_3
f 29/26/2 27/5/2 26/6/2 30/20/2
usemtl 64_grey_3
f 30/23/3 26/1/3 25/8/3 31/27/3
usemtl 64_grey_3
f 32/28/4 28/9/4 27/6/4 29/20/4
usemtl 64_grey_3
f 31/23/5 25/1/5 28/4/5 32/29/5
usemtl 64_grey_3
f 32/4/6 29/3/6 30/2/6 31/1/6

o entity0_brush4
usemtl 64_honey_3
f 33/30/1 34/31/1 35/32/1 36/33/1
usemtl 64_grey_3
f 37/34/2 35/19/2 34/35/2 38/36/2
usemtl 64_grey_3
f 38/37/3 34/38/3 33/39/3 39/40/3
usemtl 64_grey_3
f 40/41/4 36/42/4 35/43/4 37/44/4
usemtl 64_grey_3
f 39/45/5 33/46/5 36/47/5 40/48/5
usemtl 64_grey_3
f 40/33/6 37/32/6 38/31/6 39/30/6

o entity0_brush5
usemtl 64_grey_3
f 41/49/1 42/20/1 43/19/1 44/34/1
usemtl 64_honey_3
f 45/19/2 43/18/2 42/6/2 46/20/2
usemtl 64_grey_3
f 46/50/3 42/51/3 41/52/3 47/53/3
usemtl 64_grey_3
f 48/54/4 44/55/4 43/56/4 45/57/4
usemtl 64_grey_3
f 47/20/5 41/6/5 44/18/5 48/19/5
usemtl 64_grey_3
f 48/48/6 45/47/6 46/23/6 47/58/6

o entity0_brush6
usemtl 64_grey_3
f 49/20/1 50/6/1 51/5/1 52/26/1
usemtl 64_grey_3
f 53/29/2 51/4/2 50/1/2 54/23/2
usemtl 64_grey_3
f 54/27/3 50/8/3 49/51/3 55/50/3
usemtl 64_grey_3
f 56/57/4 52/56/4 51/9/4 53/28/4
usemtl 64_grey_3
f 55/20/5 49/6/5 52/5/5 56/26/5
usemtl 64_grey_3
f 56/29/6 53/4/6 54/1/6 55/23/6

o entity0_brush7
usemtl 64_honey_3
f 57/23/1 58/1/1 59/11/1 60/47/1
usemtl 64_grey_3
f 61/48/2 59/47/2 58/23/2 62/58/2
usemtl 64_grey_3
f 62/59/3 58/27/3 57/50/3 63/60/3
usemtl 64_grey_3
f 64/61/4 60/57/4 59/28/4 61/62/4
usemtl 64_grey_3
f 63/49/5 57/20/5 60/19/5 64/34/5
usemtl 64_grey_3
f 64/47/6 61/11/6 62/1/6 63/23/6

o entity0_brush8
usemtl 64_grey_3
f 65/23/1 66/1/1 67/4/1 68/29/1
usemtl 64_grey_3
f 69/4/2 67/3/2 66/2/2 70/1/2
usemtl 64_grey_3
f 70/8/3 66/7/3 65/63/3 71/51/3
usemtl 64_grey_3
f 72/56/4 68/63/4 67/7/4 69/9/4
usemtl 64_grey_3
f 71/6/5 65/2/5 68/3/5 72/5/5
usemtl 64_grey_3
f 72/26/6 69/5/6 70/6/6 71/20/6

o entity0_brush9
usemtl 64_grey_3
f 73/23/1 74/1/1 75/11/1 76/47/1
usemtl 64_grey_3
f 77/10/2 75/17/2 74/14/2 78/2/2
usemtl 64_grey_3
f 78/7/3 74/15/3 73/64/3 79/63/3
usemtl 64_grey_3
f 80/63/4 76/65/4 75/16/4 77/7/4
usemtl 64_grey_3
f 79/2/5 73/13/5 76/12/5 80/10/5
usemtl 64_honey_3
f 80/19/6 77/18/6 78/6/6 79/20/6

o entity0_brush10
usemtl 64_grey_3
f 81/66/1 82/67/1 83/18/1 84/19/1
usemtl 64_grey_3
f 85/47/2 83/11/2 82/68/2 86/69/2
usemtl 64_grey_3
f 86/27/3 82/8/3 81/51/3 87/50/3
usemtl 64_grey_3
f 88/57/4 84/56/4 83/9/4 85/28/4
usemtl 64_grey_3
f 87/66/5 81/67/5 84/18/5 88/19/5
usemtl 64_grey_3
f 88/47/6 85/11/6 86/68/6 87/69/6

o entity0_brush11
usemtl 64_grey_3
f 89/69/1 90/68/1 91/11/1 92/47/1
usemtl 64_grey_3
f 93/11/2 91/10/2 90/70/2 94/68/2
usemtl 64_grey_3
f 94/8/3 90/7/3 89/63/3 95/51/3
usemtl 64_grey_3
f 96/56/4 92/63/4 91/7/4 93/9/4
usemtl 64_grey_3
f 95/67/5 89/70/5 92/10/5 96/18/5
usemtl 64_grey_3
f 96/19/6 93/18/6 94/67/6 95/66/6

o entity0_brush12
usemtl 64_grey_3
f 97/68/1 98/70/1 99/10/1 100/11/1
usemtl 64_grey_3
f 101/18/2 99/10/2 98/70/2 102/67/2
usemtl 64_grey_3
f 102/1/3 98/2/3 97/7/3 103/8/3
usemtl 64_grey_3
f 104/9/4 100/7/4 99/2/4 101/6/4
usemtl 64_grey_3
f 103/68/5 97/70/5 100/10/5 104/11/5
usemtl 64_grey_3
f 104/18/6 101/10/6 102/70/6 103/67/6

o entity0_brush13
usemtl 64_grey_3
f 105/67/1 106/70/1 107/10/1 108/18/1
usemtl 64_grey_3
f 109/19/2 107/18/2 106/67/2 110/66/2
usemtl 64_grey_3
f 110/23/3 106/1/3 105/8/3 111/27/3
usemtl 64_grey_3
f 112/28/4 108/9/4 107/6/4 109/20/4
usemtl 64_grey_3
f 111/69/5 105/68/5 108/11/5 112/47/5
usemtl 64_grey_3
f 112/11/6 109/10/6 110/70/6 111/68/6

o entity0_brush14
usemtl 64_grey_3
f 113/71/1 114/72/1 115/73/1
usemtl 64_grey_3
f 116/74/7 115/75/7 114/76/7 117/77/7
usemtl 64_grey_3
f 117/78/3 114/79/3 113/80/3 118/81/3
usemtl 64_grey_3
f 118/29/5 113/71/5 115/73/5 116/46/5
usemtl 64_grey_3
f 117/82/6 118/83/6 116/84/6

o entity0_brush15
usemtl 64_grey_3
f 119/29/1 120/71/1 121/73/1 122/46/1
usemtl 64_grey_3
f 123/46/2 121/73/2 120/71/2 124/29/2
usemtl 64_grey_3
f 124/81/3 120/80/3 119/85/3 125/50/3
usemtl 64_grey_3
f 126/57/4 122/86/4 121/75/4 123/74/4
usemtl 64_grey_3
f 125/29/5 119/71/5 122/73/5 126/46/5
usemtl 64_grey_3
f 126/35/6 123/84/6 124/83/6 125/26/6

o entity0_brush16
usemtl 64_grey_3
f 127/78/1 128/79/1 129/73/1 130/46/1
usemtl 64_grey_3
f 131/73/2 129/87/2 128/88/2 132/79/2
usemtl 64_grey_3
f 132/80/3 128/89/3 127/51/3 133/85/3
usemtl 64_grey_3
f 134/86/4 130/56/4 129/90/4 131/75/4
usemtl 64_grey_3
f 133/79/5 127/88/5 130/87/5 134/73/5
usemtl 64_grey_3
f 134/35/6 131/84/6 132/76/6 133/77/6

o entity0_brush17
usemtl 64_grey_3
f 135/78/1 136/91/1 137/92/1 138/46/1
usemtl 64_grey_3
f 139/87/2 137/93/2 136/94/2 140/88/2
usemtl 64_grey_3
f 140/1/3 136/95/3 135/96/3 141/51/3
usemtl 64_grey_3
f 142/56/4 138/97/4 137/98/4 139/6/4
usemtl 64_grey_3
f 141/88/5 135/94/5 138/93/5 142/87/5
usemtl 64_grey_3
f 142/35/6 139/92/6 140/91/6 141/77/6

o entity0_brush18
usemtl 64_grey_3
f 143/58/1 144/23/1 145/47/1 146/48/1
usemtl 64_honey_3
f 147/99/2 145/10/2 144/2/2 148/98/2
usemtl 64_grey_3
f 148/96/3 144/63/3 143/100/3 149/101/3
usemtl 64_grey_3
f 150/102/4 146/100/4 145/63/4 147/97/4
usemtl 64_grey_3
f 149/98/5 143/2/5 146/10/5 150/99/5
usemtl 64_grey_3
f 150/48/6 147/47/6 148/23/6 149/58/6

o entity0_brush19
usemtl 64_grey_3
f 151/58/1 152/23/1 153/46/1 154/45/1
usemtl 64_honey_3
f 155/103/2 153/104/2 152/98/2 156/6/2
usemtl 64_grey_3
f 156/51/3 152/96/3 151/101/3 157/52/3
usemtl 64_grey_3
f 158/52/4 154/101/4 153/96/4 155/51/4
usemtl 64_grey_3
f 157/6/5 151/98/5 154/104/5 158/103/5
usemtl 64_grey_3
f 158/36/6 155/35/6 156/20/6 157/49/6

o entity0_brush20
usemtl 64_grey_3
f 159/105/1 160/69/1 161/47/1 162/48/1
usemtl 64_grey_3
f 163/18/2 161/99/2 160/106/2 164/67/2
usemtl 64_grey_3
f 164/56/3 160/97/3 159/102/3 165/55/3
usemtl 64_grey_3
f 166/55/4 162/102/4 161/97/4 163/56/4
usemtl 64_grey_3
f 165/67/5 159/106/5 162/99/5 166/18/5
usemtl 64_grey_3
f 166/34/6 163/19/6 164/66/6 165/107/6

o entity0_brush21
usemtl 64_honey_3
f 167/108/1 168/109/1 169/110/1 170/111/1
usemtl 64_honey_3
f 171/112/2 169/106/2 168/113/2 172/114/2
usemtl 64_honey_3
f 172/115/3 168/116/3 167/117/3 173/118/3
usemtl 64_honey_3
f 174/119/4 170/102/4 169/97/4 171/120/4
usemtl 64_honey_3
f 173/114/5 167/113/5 170/106/5 174/112/5
usemtl 64_honey_3
f 174/121/6 171/122/6 172/123/6 173/124/6

o entity0_brush22
usemtl 64_grey_3
f 175/125/1 176/126/1 177/69/1 178/105/1
usemtl 64_honey_3
f 179/67/2 177/112/2 176/114/2 180/127/2
usemtl 64_grey_3
f 180/51/3 176/128/3 175/129/3 181/52/3
usemtl 64_grey_3
f 182/55/4 178/119/4 177/120/4 179/56/4
usemtl 64_grey_3
f 181/130/5 175/131/5 178/132/5 182/68/5
usemtl 64_grey_3
f 182/107/6 179/66/6 180/133/6 181/134/6

o entity0_brush23
usemtl 64_grey_3
f 183/51/8 184/128/8 185/129/8 186/52/8
usemtl 64_honey_3
f 187/127/2 184/114/2 183/135/2
usemtl 64_grey_3
f 188/55/4 185/119/4 184/120/4 187/56/4
usemtl 64_grey_3
f 186/136/5 185/131/5 188/130/5
usemtl 64_grey_3
f 188/134/6 187/133/6 183/137/6 186/138/6

o entity0_brush24
usemtl 64_grey_3
f 189/139/1 190/126/1 191/125/1 192/140/1
usemtl 64_honey_3
f 193/114/2 190/113/2 189/141/2
usemtl 64_grey_3
f 194/119/4 191/102/4 190/97/4 193/120/4
usemtl 64_grey_3
f 192/142/5 191/143/5 194/131/5
usemtl 64_grey_3
f 194/129/9 193/128/9 189/96/9 192/101/9

o entity0_brush25
usemtl 64_grey_3
f 195/2/1 196/14/1 197/17/1 198/10/1
usemtl 64_honey_3
f 199/99/2 197/10/2 196/2/2 200/98/2
usemtl 64_grey_3
f 200/144/3 196/145/3 195/2/3 201/95/3
usemtl 64_grey_3
f 202/98/4 198/2/4 197/145/4 199/146/4
usemtl 64_honey_3
f 201/98/5 195/2/5 198/10/5 202/99/5
usemtl 64_grey_3
f 202/10/6 199/17/6 200/14/6 201/2/6

o entity0_brush26
usemtl 64_grey_3
f 203/2/1 204/14/1 205/147/1 206/92/1
usemtl 64_grey_3
f 207/103/2 205/104/2 204/98/2 208/6/2
usemtl 64_grey_3
f 208/22/3 204/144/3 203/95/3 209/1/3
usemtl 64_grey_3
f 210/1/4 206/95/4 205/144/4 207/22/4
usemtl 64_honey_3
f 209/6/5 203/98/5 206/104/5 210/103/5
usemtl 64_grey_3
f 210/92/6 207/148/6 208/13/6 209/2/6

o entity0_brush27
usemtl 64_grey_3
f 211/70/1 212/149/1 213/17/1 214/10/1
usemtl 64_honey_3
f 215/18/2 213/99/2 212/106/2 216/67/2
usemtl 64_grey_3
f 216/24/3 212/146/3 211/98/3 217/6/3
usemtl 64_grey_3
f 218/6/4 214/98/4 213/146/4 215/24/4
usemtl 64_grey_3
f 217/67/5 211/106/5 214/99/5 218/18/5
usemtl 64_grey_3
f 218/10/6 215/12/6 216/150/6 217/70/6

o entity0_brush28
usemtl 64_grey_3
f 219/22/8 220/151/8 221/152/8 222/1/8
usemtl 64_honey_3
f 223/127/2 220/114/2 219/135/2
usemtl 64_grey_3
f 224/6/4 221/153/4 220/154/4 223/24/4
usemtl 64_honey_3
f 222/135/5 221/114/5 224/127/5
usemtl 64_grey_3
f 224/155/6 223/156/6 219/157/6 222/158/6

o entity0_brush29
usemtl 64_grey_3
f 225/155/1 226/159/1 227/149/1 228/70/1
usemtl 64_honey_3
f 229/112/2 227/106/2 226/113/2 230/114/2
usemtl 64_grey_3
f 230/151/3 226/144/3 225/95/3 231/152/3
usemtl 64_grey_3
f 232/153/4 228/98/4 227/146/4 229/154/4
usemtl 64_honey_3
f 231/114/5 225/113/5 228/106/5 232/112/5
usemtl 64_grey_3
f 232/70/6 229/150/6 230/156/6 231/155/6

o entity0_brush30
usemtl 64_grey_3
f 233/160/1 234/159/1 235/155/1 236/158/1
usemtl 64_honey_3
f 237/114/2 234/113/2 233/141/2
usemtl 64_grey_3
f 238/153/4 235/98/4 234/146/4 237/154/4
usemtl 64_honey_3
f 236/141/5 235/113/5 238/114/5
usemtl 64_grey_3
f 238/152/9 237/151/9 233/144/9 236/95/9

o entity0_brush31
usemtl 64_grey_3
f 239/155/1 240/159/1 241/149/1 242/70/1
usemtl 64_honey_3
f 243/67/2 241/112/2 240/114/2 244/127/2
usemtl 64_grey_3
f 244/22/3 240/151/3 239/152/3 245/1/3
usemtl 64_grey_3
f 246/6/4 242/153/4 241/154/4 243/24/4
usemtl 64_honey_3
f 245/127/5 239/114/5 242/112/5 246/67/5
usemtl 64_grey_3
f 246/70/6 243/150/6 244/156/6 245/155/6

o entity0_brush32
usemtl 64_honey_3
f 247/1/1 248/161/1 249/33/1 250/11/1
usemtl 64_grey_3
f 251/48/2 249/47/2 248/23/2 252/58/2
usemtl 64_grey_3
f 252/40/3 248/39/3 247/27/3 253/59/3
usemtl 64_grey_3
f 254/62/4 250/28/4 249/42/4 251/41/4
usemtl 64_grey_3
f 253/58/5 247/23/5 250/47/5 254/48/5
usemtl 64_grey_3
f 254/11/6 251/33/6 252/161/6 253/1/6

o entity0_brush33
usemtl 64_honey_3
f 255/162/1 256/2/1 257/10/1 258/32/1
usemtl 64_grey_3
f 259/34/2 257/19/2 256/20/2 260/49/2
usemtl 64_grey_3
f 260/58/3 256/23/3 255/38/3 261/37/3
usemtl 64_grey_3
f 262/44/4 258/43/4 257/20/4 259/49/4
usemtl 64_grey_3
f 261/49/5 255/20/5 258/19/5 262/34/5
usemtl 64_grey_3
f 262/32/6 259/10/6 260/2/6 261/162/6

o entity0_brush34
usemtl 64_grey_3
f 263/161/1 264/162/1 265/163/1 266/164/1
usemtl 64_grey_3
f 267/165/2 265/26/2 264/20/2 268/49/2
usemtl 64_grey_3
f 268/37/3 264/38/3 263/39/3 269/40/3
usemtl 64_grey_3
f 270/40/4 266/39/4 265/38/4 267/37/4
usemtl 64_grey_3
f 269/58/5 263/23/5 266/29/5 270/166/5
usemtl 64_grey_3
f 270/164/6 267/163/6 268/162/6 269/161/6

o entity0_brush35
usemtl 64_honey_3
f 271/167/1 272/168/1 273/169/1
usemtl 64_grey_3
f 274/170/10 272/171/10 271/39/10 275/40/10
usemtl 64_grey_3
f 276/41/4 273/42/4 272/172/4 274/173/4
usemtl 64_grey_3
f 275/174/5 271/175/5 273/77/5 276/176/5
usemtl 64_grey_3
f 274/168/6 275/167/6 276/169/6

o entity0_brush36
usemtl 64_honey_3
f 277/169/1 278/168/1 279/177/1 280/30/1
usemtl 64_grey_3
f 281/45/2 279/46/2 278/78/2 282/178/2
usemtl 64_grey_3
f 282/170/3 278/171/3 277/39/3 283/40/3
usemtl 64_grey_3
f 284/41/4 280/42/4 279/172/4 281/173/4
usemtl 64_grey_3
f 283/176/5 277/77/5 280/35/5 284/36/5
usemtl 64_grey_3
f 284/30/6 281/177/6 282/168/6 283/169/6

o entity0_brush37
usemtl 64_honey_3
f 285/168/1 286/179/1 287/31/1 288/177/1
usemtl 64_grey_3
f 289/45/2 287/46/2 286/78/2 290/178/2
usemtl 64_grey_3
f 290/37/3 286/38/3 285/171/3 291/170/3
usemtl 64_grey_3
f 292/173/4 288/172/4 287/43/4 289/44/4
usemtl 64_grey_3
f 291/176/5 285/77/5 288/35/5 292/36/5
usemtl 64_grey_3
f 292/177/6 289/31/6 290/179/6 291/168/6

o entity0_brush38
usemtl 64_honey_3
f 293/180/1 294/179/1 295/168/1
usemtl 64_grey_3
f 296/178/2 294/78/2 293/181/2 297/182/2
usemtl 64_grey_3
f 298/173/4 295/172/4 294/43/4 296/44/4
usemtl 64_grey_3
f 297/37/11 293/38/11 295/171/11 298/170/11
usemtl 64_grey_3
f 298/168/6 296/179/6 297/180/6

o entity0_brush39
usemtl 64_grey_3
f 299/183/1 300/184/1 301/185/1 302/186/1
usemtl 64_grey_3
f 303/187/2 301/188/2 300/98/2 304/6/2
usemtl 64_grey_3
f 304/189/3 300/190/3 299/191/3 305/192/3
usemtl 64_grey_3
f 306/192/12 302/191/12 301/190/12 303/189/12
usemtl 64_grey_3
f 305/6/5 299/98/5 302/104/5 306/103/5
usemtl 64_grey_3
f 306/30/6 303/193/6 304/194/6 305/161/6

o entity0_brush40
usemtl 64_grey_3
f 307/184/1 308/195/1 309/196/1 310/185/1
usemtl 64_grey_3
f 311/187/2 309/188/2 308/98/2 312/6/2
usemtl 64_grey_3
f 312/197/3 308/198/3 307/190/3 313/189/3
usemtl 64_grey_3
f 314/199/4 310/200/4 309/201/4 311/202/4
usemtl 64_grey_3
f 313/1/5 307/95/5 310/203/5 314/204/5
usemtl 64_grey_3
f 314/193/6 311/205/6 312/206/6 313/194/6

o entity0_brush41
usemtl 64_grey_3
f 315/194/1 316/206/1 317/205/1 318/193/1
usemtl 64_grey_3
f 319/207/2 317/187/2 316/6/2 320/20/2
usemtl 64_grey_3
f 320/208/3 316/197/3 315/189/3 321/209/3
usemtl 64_grey_3
f 322/210/4 318/199/4 317/202/4 319/211/4
usemtl 64_grey_3
f 321/23/5 315/1/5 318/204/5 322/212/5
usemtl 64_grey_3
f 322/193/6 319/205/6 320/206/6 321/194/6

o entity0_brush42
usemtl 64_grey_3
f 323/14/1 324/195/1 325/213/1 326/214/1
usemtl 64_grey_3
f 327/215/2 325/216/2 324/2/2 328/98/2
usemtl 64_grey_3
f 328/198/3 324/217/3 323/145/3 329/144/3
usemtl 64_grey_3
f 330/146/4 326/145/4 325/217/4 327/201/4
usemtl 64_grey_3
f 329/95/5 323/2/5 326/216/5 330/218/5
usemtl 64_grey_3
f 330/214/6 327/213/6 328/195/6 329/14/6

o entity0_brush43
usemtl 64_grey_3
f 331/14/1 332/195/1 333/219/1 334/17/1
usemtl 64_grey_3
f 335/10/2 333/12/2 332/13/2 336/2/2
usemtl 64_grey_3
f 336/217/3 332/220/3 331/221/3 337/145/3
usemtl 64_grey_3
f 338/145/4 334/222/4 333/223/4 335/217/4
usemtl 64_grey_3
f 337/2/5 331/14/5 334/17/5 338/10/5
usemtl 64_honey_3
f 338/12/6 335/224/6 336/206/6 337/13/6

o entity0_brush44
usemtl 64_grey_3
f 339/195/1 340/225/1 341/226/1 342/219/1
usemtl 64_grey_3
f 343/19/2 341/10/2 340/2/2 344/20/2
usemtl 64_grey_3
f 344/227/3 340/228/3 339/217/3 345/208/3
usemtl 64_grey_3
f 346/211/4 342/217/4 341/228/4 343/229/4
usemtl 64_honey_3
f 345/230/5 339/231/5 342/232/5 346/233/5
usemtl 64_grey_3
f 346/219/6 343/226/6 344/225/6 345/195/6

o entity0_brush45
usemtl 64_honey_3
f 347/14/1 348/195/1 349/219/1 350/17/1
usemtl 64_grey_3
f 351/34/2 349/19/2 348/20/2 352/49/2
usemtl 64_grey_3
f 352/234/3 348/208/3 347/21/3 353/235/3
usemtl 64_grey_3
f 354/236/4 350/25/4 349/211/4 351/237/4
usemtl 64_grey_3
f 353/58/5 347/23/5 350/47/5 354/48/5
usemtl 64_grey_3
f 354/12/6 351/224/6 352/206/6 353/13/6

o entity0_brush46
usemtl 64_grey_3
f 355/14/1 356/183/1 357/186/1 358/147/1
usemtl 64_grey_3
f 359/103/2 357/104/2 356/98/2 360/6/2
usemtl 64_grey_3
f 360/192/3 356/191/3 355/144/3 361/22/3
usemtl 64_grey_3
f 362/22/4 358/144/4 357/191/4 359/192/4
usemtl 64_grey_3
f 361/6/5 355/98/5 358/104/5 362/103/5
usemtl 64_grey_3
f 362/148/6 359/30/6 360/161/6 361/13/6

o entity0_brush47
usemtl 64_grey_3
f 363/13/1 364/194/1 365/193/1 366/238/1
usemtl 64_grey_3
f 367/212/2 365/204/2 364/1/2 368/23/2
usemtl 64_grey_3
f 368/209/3 364/189/3 363/22/3 369/21/3
usemtl 64_grey_3
f 370/25/4 366/24/4 365/199/4 367/210/4
usemtl 64_grey_3
f 369/23/5 363/1/5 366/204/5 370/212/5
usemtl 64_grey_3
f 370/238/6 367/193/6 368/194/6 369/13/6

